<svg fill="#ffffff" id="wm" viewBox="0 0 1010 160" xmlns="http://www.w3.org/2000/svg" aria-label="HYPHEN"><path class="l" id="l-H1" d="M 120.4 6.6 L 146.0 6.6 L 146.0 67.4 L 120.4 67.4 Z M 46.4 67.4 L 146.0 67.4 L 146.0 90.2 L 46.4 90.2 Z M 2.2 6.6 L 27.8 6.6 L 27.8 154.0 L 2.2 154.0 Z M 120.4 90.2 L 146.0 90.2 L 146.0 154.0 L 120.4 154.0 Z M 120.4 90.2 "/><path class="l" id="l-Y" d="M 239.4 153.4 L 239.4 97.7 L 161.4 6.6 L 195.9 6.6 L 253.1 74.2 L 310.5 6.6 L 343.2 6.6 L 265.0 97.7 L 265.0 153.4 Z M 239.4 153.4 "/><path class="l" id="l-P" d="M 402.8 112.6 L 402.8 87.8 L 461.8 87.8 C 470.8 87.8 477.8 85.3 482.9 80.2 C 487.9 75.1 490.5 68.4 490.5 59.9 C 490.5 51.4 487.9 44.7 482.9 39.7 C 477.9 34.7 470.8 32.2 461.8 32.2 L 384.2 32.2 L 384.2 153.4 L 358.5 153.4 L 358.5 6.6 L 461.8 6.6 C 470.3 6.6 477.8 7.8 484.5 10.3 C 491.2 12.8 496.8 16.3 501.4 20.8 C 506.0 25.3 509.5 30.8 511.9 37.3 C 514.3 43.7 515.5 51.0 515.5 59.1 C 515.5 67.0 514.3 74.3 511.9 80.8 C 509.5 87.3 505.9 93.0 501.4 97.7 C 496.8 102.4 491.2 106.1 484.5 108.7 C 477.8 111.3 470.3 112.6 461.8 112.6 Z M 402.8 112.6 "/><path class="l" id="l-H2" d="M 651.9 6.6 L 677.5 6.6 L 677.5 67.4 L 651.9 67.4 Z M 577.9 67.4 L 677.5 67.4 L 677.5 90.2 L 577.9 90.2 Z M 533.7 6.6 L 559.3 6.6 L 559.3 154.0 L 533.7 154.0 Z M 651.9 90.2 L 677.5 90.2 L 677.5 154.0 L 651.9 154.0 Z M 651.9 90.2 "/><path class="l" id="l-E" d="M 703.0 153.4 L 703.0 6.6 L 834.3 6.6 L 834.3 32.2 L 728.6 32.2 L 728.6 127.8 L 834.5 127.8 L 834.5 153.4 Z M 703.0 153.4 "/><path class="l" id="l-N" d="M 880.1 46.0 L 880.1 153.4 L 855.7 153.4 L 855.7 20.1 C 855.7 15.4 856.9 11.7 859.2 8.9 C 861.6 6.1 864.8 4.8 868.8 4.8 C 870.7 4.8 872.5 5.2 874.3 6.0 C 876.0 6.8 877.8 8.1 879.7 10.0 L 983.4 112.8 L 983.4 5.4 L 1007.8 5.4 L 1007.8 139.9 C 1007.8 144.8 1006.6 148.5 1004.3 151.2 C 1001.9 153.9 998.8 155.2 995.1 155.2 C 990.9 155.2 987.0 153.4 983.3 149.8 Z M 880.1 46.0 "/><path class="bar" id="l-bar" fill="#ff1a1a" d="M 747.2 68.0 L 828.6 68.0 L 828.6 89.6 L 747.2 89.6 Z M 747.2 68.0 "/></svg>